<svg width="47" height="47" fill="none" xmlns="http://www.w3.org/2000/svg"><path d="M8.553 13.941v.702c0 .682 0 2.037.077 5.039.078 3.002.233 7.61.32 10.045.088 2.435.104 2.557.113 2.667.01.11.012.202.033.527M12.466 25.294c0-.007 0 1.04.008 2.683.008.592.024.692.04.797.016.104.032.21.049.411M12.563 29.724c.013 0 1.067 0 2.732-.014a9.622 9.622 0 002.83-.445c.405-.136.68-.393.803-.542.245-.296.206-1.445-.036-2.306-.169-.6-1.226-.838-2-1.108-.603-.21-2.364-.213-3.375-.163-.1.021-.184.044-.294.083-.11.039-.244.094-.577.258M13.02 21.338c.786 0 2.719-.046 3.98-.35.418-.102.646-.16.779-.258.57-.417.06-1.768-.16-2.22a1.74 1.74 0 00-.632-.68c-1.054-.684-3.483-.659-4.09-.533-.354.073-.595.557-.745 1.113-.011.278-.011.745.046 1.236.057.49.172.989.303 1.57" stroke="#000" stroke-width="1.419" stroke-linecap="round"/><path d="M20.457 22.846c.141-.059.46-.309.791-.875.537-.919.874-2.06 1.075-2.931.273-1.189-.238-1.89-.53-2.382-.255-.431-.722-.603-1.352-.852-.455-.181-1.003-.44-1.558-.784-.45-.277-1.072-.392-4.04-.739-1.112-.13-2.485-.12-3.457-.134a27.023 27.023 0 00-1.836.022 2.316 2.316 0 00-.708.121M20.672 23.07c.141.034.599.3 1.774 1.694.512.606.596 1.298.712 2.163.174 1.306-.056 2.974-.422 3.794-.312.697-1.338 1.301-3.095 1.908-1.088.375-3.086.692-4.484.911-2.151.338-3.172.19-3.574.111a11.184 11.184 0 01-1.438-.369 7.909 7.909 0 00-.635-.148M36.431 13.498c0 .026 0 .905-1.08 2.213-.745.901-3.245.44-4.73.454-2.231.02-3.118.044-3.31-.072-.995-.607.22-2.943.338-3.065.06-.063.183-.042 1.183-.021 1 .02 2.89.063 3.943.07 1.7-.046 2.5-.07 2.758-.11.116-.014.203-.018.342-.035M34.479 24.071c-.748 0-2.426.034-3.333.057-.532.014-1.07.074-1.599.05-.17-.009-.128-.107-.08-.228a4.813 4.813 0 011.208-1.725 2.728 2.728 0 011.226-.613c.724-.163 1.155.188 1.482.414.303.21.728.655.984 1.087.073.159.139.33.2.508.033.086.073.16.134.247M38.013 27.012h-.471c-.464 0-1.388 0-2.802.04-1.415.04-3.292.12-4.252.198-.96.08-.945.155-.867.372.406 1.121.725 1.526 1.015 1.74.323.238.635.355.815.422.254.094 1.113.22 2.416.357 1.676.177 2.038-.05 2.438-.14.35-.077.562-.29.743-.368.073-.031.053.994.023 2.342-.01.473-.066.517-.271.576-.564.163-1.012.213-1.397.264-.324.042-.905.131-1.645.175-.74.043-1.622.04-2.15.03-.53-.012-.68-.032-.834-.052" stroke="#000" stroke-width="1.419" stroke-linecap="round"/><path d="M38.552 27.097c0-.012-.002-.559-.035-1.526-.014-.428-.086-.722-.21-1.357a50.223 50.223 0 00-.48-2.246c-.243-.961-.514-1.387-.7-1.643-.187-.258-.595-.576-1.268-1.016-.849-.555-1.517-.724-1.8-.79-.192-.045-.491-.084-.954-.112a8.997 8.997 0 00-1.782.057c-.7.096-1.464.298-1.913.428-.566.165-.74.28-.977.475a5.33 5.33 0 00-1.06 1.168c-.34.518-.673 1.177-1 1.667-.332.647-.662 1.434-.777 2.03a9.972 9.972 0 00-.047.617M25.549 24.862l.033 1.678c.01.452.058.662.156 1.115.18.834.28 1.451.465 1.82.399.8.796 1.364 1.045 1.676.49.613.932 1.05 1.115 1.193.736.359 1.8.722 2.11.762.171.018.373.034.68.08M45.37 21.363v-1.467c0-1.46 0-4.379.005-5.924.004-1.63.018-2.39 0-3.468-.01-.52-.133-.847-.29-1.392-.226-.78-.582-1.79-1.138-2.861-.569-1.097-1.403-1.863-2.128-2.518-1.314-1.186-1.944-1.314-2.864-1.668-.604-.232-1.53-.445-2.692-.66a36.198 36.198 0 00-4.029-.492C30.746.81 29.19.79 28.33.772 27.354.75 26.984.724 25.781.716 24.83.71 23.182.697 21.602.743a77.97 77.97 0 00-4.028.229c-.984.08-1.445.135-2.103.187-.657.053-1.497.103-1.971.137-.474.033-.557.048-.747.094M12.342 1.747c-.006 0-.718.003-2.104.093-1.322.085-2.03.467-2.398.643-1.42.682-2.124 1.038-2.812 1.54-.832.606-1.613 1.49-1.953 2.097-.099.252-.245.656-.348.917-.103.26-.159.366-.25.567M2.237 7.59c0-.007 0 .15-.138.862-.294 1.518-.78 2.815-.935 3.625-.086.45-.136.986-.219 2.604a220.53 220.53 0 00-.22 6.313 92.519 92.519 0 00.03 4.553M.754 25.547l.019.974c.018.967.054 2.9.134 4.38.08 1.48.2 2.45.304 3.434.104.984.188 1.952.273 2.661.137 1.136.485 2.12 1.025 3.22.562 1.147 1.552 2.155 2.28 3.05.713.766 1.4 1.303 1.941 1.57.292.134.62.264 1.11.486M45.28 21.688l-.008.842c-.007.83-.023 2.482-.063 4.325s-.105 3.824-.129 5.279c-.038 2.32-.01 3.37-.047 3.654a17.06 17.06 0 01-.082 1.031c-.012.106-.02.2-.049.38M44.902 37.199c-.002.431-.224 1.865-.504 2.509-.293.673-.704 1.091-.946 1.394-.123.154-.582.582-1.238 1.195-.424.396-1.164.91-2.14 1.57-.408.278-.674.388-1.357.613-1.773.585-3.053.916-3.569.994-1.767.193-2.189.236-2.762.246-.4.009-1.02.025-1.66.042M31.274 45.938l-1.393.012c-1.38.012-4.136.036-5.683.064-1.546.029-1.802.06-2.539.082-1.947.056-3.407.066-3.807.117-.35.05-1.076.082-1.976.086-.339-.004-.439-.02-.744-.039" stroke="#000" stroke-width="1.419" stroke-linecap="round"/><path d="M15.132 46.26c-.018 0-1.1 0-2.766-.004-1.093-.003-1.949-.127-3.48-.607a60.998 60.998 0 01-2.685-1.135c-.084-.032-.167-.05-.252-.068" stroke="#000" stroke-width="1.419" stroke-linecap="round"/></svg>