<svg width="46" height="47" fill="none" xmlns="http://www.w3.org/2000/svg"><path d="M32.38 12.378c.193.064.58.323.89.679.172.199.34.39.438.744.318 1.159-.193 1.654-.388 2.06-.195.407-.744.535-1.23.682-.84.254-1.265-.306-1.638-.663-.333-.317-.374-.777-.472-1.199-.126-.546.226-.94.47-1.313.263-.406.76-.568 1.15-.714.194-.113.39-.211.615-.26.13-.016.29-.016.456-.016M27.931 22.18c-.036-.33-.256-1.066-.533-1.546-.236-.41-.827-.92-1.345-1.328a5.767 5.767 0 00-1.327-.775c-.43-.18-1.103-.221-1.932-.313-1.818-.201-2.27.275-2.713.533-.46.267-.884.59-1.786 1.472-.628.614-1.015 1.18-1.2 1.624-.18.43-.295.957-.315 2.355-.009.644.276 1.072.516 1.515.231.429.497.884.792 1.327.291.437.7.774 1.105 1.107.412.337.884.589 1.346.866.51.307 2.181.24 3.188.112.518-.066.884-.497 1.236-.847.374-.372.792-.681 1.179-1.032.39-.355.608-.866.794-1.308.18-.431.294-.884.442-1.327.167-.501.184-1.106.203-2.466-.128-.631-.276-1.073-.515-1.515-.056-.112-.092-.221-.13-.334" stroke="#000" stroke-width="1.727" stroke-linecap="round"/><path d="M31.36 22.622c0-.44-.073-1.103-.221-1.656-.148-.554-.368-.995-.571-1.438-.227-.493-.609-.885-1.343-1.676-.702-.756-1.734-1.569-2.177-1.772-.474-.218-.884-.57-1.327-.756-.454-.19-.994-.184-1.547-.313-.543-.127-1.944-.13-2.895-.038a3.133 3.133 0 00-1.419.478c-.695.434-1.326 1.162-1.787 1.456-.606.386-.793.958-1.199 1.51-.406.555-.7.996-.977 1.439-.251.401-.314.957-.461 1.548-.14.556-.295.995-.351 1.897-.063 1.013-.02 2.489.128 2.97.137.445.295.956.534 1.455.248.516.497 1.05.793 1.53.279.453.59.884.995 1.217.396.326.884.479 1.326.664.431.18 1.25.222 1.953.314.808.105 1.473.129 2.23.22 1.447.176 1.972-.164 2.453-.404.436-.217.957-.57 1.437-.884.408-.267.884-.497 1.493-1.086.428-.414.646-.922.94-1.365.285-.427.48-.884.683-1.327.21-.458.46-.884.645-1.419.112-.753.148-1.678.203-1.935.02-.148.02-.33.02-.518M10.557 1.51c-.801 0-2.421.08-2.906.242-.499.166-.97.524-1.454.746-.52.24-.97.626-1.474.99-.64.46-1.07.927-1.435 1.413-.35.466-.566.968-.828 1.454-.254.47-.465 1.048-.627 1.575a8.546 8.546 0 00-.384 1.998c-.058.831-.18 1.959-.242 3.088-.02.37-.101 2.249-.121 4.975-.007.966-.06 1.086-.08 2.167-.021 1.082-.021 3.12-.041 4.231-.02 1.11-.06 1.23-.102 1.597" stroke="#000" stroke-width="1.727" stroke-linecap="round"/><path d="M.863 25.986c0 1.68.08 5.087.142 5.793.055.64.222 1.35.322 2.08.155 1.123.142 1.857.243 2.484.131.82.142 1.874.262 2.626.096.6.323 1.07.505 1.555.2.536.705.969 1.09 1.434.368.446.868.747 1.312 1.111.512.42 1.09.808 1.595 1.07.557.29 1.07.465 1.676.627.636.17 1.292.202 2.098.344.79.139 1.417.06 2.858.121 1.32.055 3.84.02 5.198.04 1.358.02 1.478.06 2.32.081.841.02 2.4.02 4.25-.1M24.734 45.251h1.34c1.26 0 3.739 0 5.076-.02 1.823-.027 2.628-.18 3.355-.242a13.337 13.337 0 002-.323c.57-.148 1.15-.142 1.777-.262.522-.1 1.07-.323 1.596-.485.502-.154.968-.444 1.454-.706.454-.246.927-.826 1.233-1.353.277-.477.504-.968.707-1.454.203-.484.444-.968.605-1.454a7.528 7.528 0 00.385-1.695c.14-.607.262-.97.323-1.692.02-.602.02-1.682.02-2.794" stroke="#000" stroke-width="1.727" stroke-linecap="round"/><path d="M44.605 32.771c0-.08 0-1.88.02-4.606.013-1.733.181-3.105.242-3.933.014-.184.06-.304.081-2.545.02-2.24.02-6.6 0-8.904-.023-2.75-.18-3.395-.342-4-.172-.645-.323-1.292-.505-1.819-.18-.522-.504-.969-.828-1.454-.323-.485-.645-.969-1.09-1.333a18.672 18.672 0 00-1.453-1.09c-.486-.324-.97-.647-1.454-.87-.502-.23-.97-.424-1.455-.686-.456-.246-2.488-.264-3.916-.364-.721-.02-1.294-.06-2.936-.121-1.52-.02-4.44-.02-7.447-.02M23.522 1.025c-.681 0-2.137-.08-4.675-.141-1.62-.04-3.562-.021-4.148.04-.986.103-2.443.181-3.23.242-.184.02-.304.06-.526.08-.221.021-.541.021-.87.021M15.252 10.072c-.476 0-1.438.049-1.726.148-.296.101-.575.32-.863.457-.309.146-.575.382-.875.604-.38.281-.635.567-.852.864-.208.285-.336.592-.492.89a5.6 5.6 0 00-.372.962 5.36 5.36 0 00-.228 1.222c-.034.508-.107 1.197-.144 1.888-.011.226-.06 1.375-.072 3.04-.004.592-.035.665-.047 1.326-.013.661-.013 1.908-.024 2.587-.012.679-.036.752-.06.976M9.496 25.036c0 1.048.05 3.173.089 3.613.035.4.14.843.202 1.298.098.7.09 1.158.152 1.55.083.511.09 1.168.165 1.637.06.375.202.668.316.97.126.334.442.605.683.895.231.278.545.465.823.693.32.262.683.504 1 .668.349.18.67.29 1.05.39.4.106.81.126 1.316.215.496.086.888.037 1.792.075.827.035 2.407.013 3.258.026.852.012.927.037 1.454.05.528.013 1.505.013 2.665-.063M24.46 37.122h.777c.73 0 2.166 0 2.94-.012 1.056-.016 1.522-.108 1.944-.145a7.483 7.483 0 001.158-.194c.33-.089.666-.085 1.03-.157.302-.06.619-.194.924-.29.29-.093.561-.267.842-.424.264-.147.537-.495.714-.81.16-.287.292-.582.41-.872.117-.291.257-.581.35-.872.095-.291.188-.629.223-1.017.082-.364.152-.582.187-1.014.012-.36.012-1.008.012-1.675" stroke="#000" stroke-width="1.727" stroke-linecap="round"/><path d="M36.325 29.64c0-.05 0-1.193.013-2.923.008-1.099.112-1.97.15-2.495.008-.117.037-.193.05-1.615.012-1.422.012-4.187 0-5.65-.015-1.745-.112-2.154-.212-2.539-.106-.408-.2-.82-.312-1.153-.11-.331-.31-.615-.51-.923-.2-.308-.4-.615-.673-.846-.29-.244-.599-.487-.898-.692-.3-.205-.598-.41-.898-.551-.31-.146-.598-.27-.897-.436-.282-.156-1.537-.167-2.418-.23-.446-.014-.8-.04-1.813-.078-.939-.013-2.74-.013-4.598-.013M23.31 9.496h-8.058M13.525 7.77c-.57 0-1.725.056-2.07.17-.356.118-.69.37-1.036.527-.37.169-.69.441-1.05.698a4.557 4.557 0 00-1.023.997c-.25.329-.403.683-.59 1.025-.18.332-.33.74-.446 1.112-.107.345-.23.796-.274 1.41-.041.585-.129 1.38-.172 2.178-.015.26-.073 1.586-.087 3.509-.005.682-.043.766-.057 1.529-.015.763-.015 2.201-.03 2.985-.013.783-.042.868-.071 1.126M6.619 25.036c0 1.248.061 3.777.109 4.302.043.476.171 1.003.249 1.544.12.834.11 1.379.187 1.845.101.61.11 1.391.202 1.95.074.446.25.794.39 1.155.154.398.544.719.84 1.065.285.33.67.554 1.013.825.395.312.84.6 1.23.794.43.215.826.346 1.294.466.49.126.996.15 1.619.255.61.103 1.093.045 2.205.09 1.019.041 2.963.015 4.01.03 1.048.015 1.14.044 1.79.06.65.015 1.852.015 3.279-.075M25.036 39.424h.931c.877 0 2.6 0 3.53-.014 1.266-.02 1.826-.134 2.331-.18a8.779 8.779 0 001.39-.237c.397-.11.8-.105 1.236-.194.362-.074.743-.238 1.109-.358.35-.113.673-.327 1.01-.52.317-.182.645-.61.858-.998.192-.353.35-.715.491-1.073.141-.358.309-.715.421-1.073.113-.358.225-.774.267-1.251.098-.448.182-.717.225-1.249.014-.444.014-1.24.014-2.061" stroke="#000" stroke-width="1.727" stroke-linecap="round"/><path d="M39.165 30.216c0-.058 0-1.364.014-3.34.01-1.257.131-2.252.176-2.853.01-.133.043-.22.058-1.845.015-1.625.015-4.786 0-6.458-.017-1.994-.13-2.461-.248-2.9-.124-.468-.234-.937-.366-1.319-.13-.378-.365-.702-.6-1.054-.234-.352-.467-.703-.79-.967-.339-.28-.701-.557-1.053-.791-.352-.235-.702-.469-1.054-.63-.363-.167-.702-.308-1.054-.498-.33-.179-1.803-.191-2.838-.264-.523-.015-.938-.044-2.128-.088-1.102-.015-3.218-.015-5.397-.015M23.885 7.194H13.526" stroke="#000" stroke-width="1.727" stroke-linecap="round"/></svg>