<svg width="47" height="48" fill="none" xmlns="http://www.w3.org/2000/svg"><path d="M15.667 11.645c-.057-.115-.325-.383-.556-.662-.326-.393-.596-.51-.827-.616a6.756 6.756 0 00-.692-.279c-.26-.087-.576-.096-2.29-.096-.551 0-.879.363-1.216.652a3.078 3.078 0 00-.645.769c-.119.22-.21.499-.278.892-.162.94.086 1.183.172 1.414.095.255.297.46.46.682.164.222.452.317.683.471.222.149.651.326 1.037.462.296.104.615.096 1.64.106.441.004.704-.182.955-.298.262-.12.46-.326.74-.5.242-.15.47-.345.682-.575.169-.185.211-.461.298-.711.108-.31.068-.786-.038-1.134-.048-.115-.086-.231-.134-.346-.029-.058-.067-.115-.049-.174M15.206 18.966h-.676c-.6 0-1.76 0-2.387.01-.951.047-1.433.067-1.634.095-.143.01-.372.01-.607.01" stroke="#000" stroke-width="1.727" stroke-linecap="round"/><path d="M9.902 19.081c0 .038 0 1.085.01 2.67.005.922.086 1.537.115 1.969.034.51.086 1.125.115 1.46.064.736.068 1.817.096 2.418.025.523.01 1.494.02 2.032s.028.614.038 1.452c.01.838.01 2.436-.01 3.288-.028 1.305-.384 2.1-.48 2.427-.02.21-.038.404-.067.567-.01.087-.01.182-.01.28M9.73 37.644c.037 0 1.084 0 2.67.01 1.186.047 2.286.066 2.44.095.095.01.229.01.366.01" stroke="#000" stroke-width="1.727" stroke-linecap="round"/><path d="M15.206 37.759v-.79c0-.752 0-2.235-.01-3.028-.012-1.024-.086-1.37-.115-1.753-.03-.386-.086-.807-.115-1.134-.02-.211-.048-.537-.058-.892-.006-.224-.048-1.08-.058-2.3-.006-.786-.086-1.285-.115-1.765-.025-.406-.086-.827-.115-1.23-.062-.86-.086-2.21-.115-2.729-.018-.315-.144-.615-.174-.913-.048-.393-.086-.97-.115-2.111-.01-.187-.028-.111-.048-.033M24.833 21.445c0-.495-.038-1.536-.115-1.892-.036-.163-.077-.298-.154-.404-.22-.303-.767-.221-1.238-.298-.918-.15-2.124-.02-2.45.01-.277.024-.957.105-1.47.162-.087.02-.182.039-.26.058-.077.02-.134.038-.193.058" stroke="#000" stroke-width="1.727" stroke-linecap="round"/><path d="M18.953 19.139c0 .038 0 .97.019 2.44.013.984.134 1.324.163 1.661.016.183.048.413.058.643.006.157.048 1.127.058 2.548.003.509.028.585.038 2.27.01 1.684.01 4.975.048 6.68s.114 1.724.22 1.734c.527.049 1.103-.105 1.795-.21.369-.057.75-.107 1.815-.136.606-.048 1.204-.01 1.32.057.057.03.114.049.23.126M24.718 36.952v-.79c0-.752 0-2.235.01-3.028.011-1.024.085-1.37.114-1.753.044-.575.087-1.384.125-1.777.056-.573.135-.952.212-1.355.077-.405.115-.673.268-1.239.116-.43.173-.702.27-1.029a5.2 5.2 0 01.384-.97c.146-.284.307-.51.566-.77.192-.192.47-.24.711-.365.265-.138.51-.221.98-.231.292-.006.547.316.75.595.3.413.433.835.662 1.334.205.443.232.77.27 1.115.037.327.097.806.106 1.267.004.175.029.232.038 1.641.01 1.409.01 4.167.02 5.626.01 1.535.048 1.918.086 2.38.013.16.114.156.191.137.385-.095.883-.134 1.25-.163.077-.01.134-.029.296-.039.163-.01.43-.01.704-.01M32.788 37.47c.59 0 1.824-.037 2.19-.114.584-.123 1.364-.096 1.777-.173.37-.069.126-.9.174-1.525.117-1.526.068-1.95.115-2.356.025-.21.03-.404.058-1.071.026-.59.01-1.694 0-2.3-.016-1.029-.086-1.72-.124-2.737-.027-.703-.192-1.117-.27-1.473-.065-.301-.153-.528-.23-.778-.12-.392-.116-1.168-.163-1.614-.009-.077-.01-.172-.039-.24-.028-.068-.085-.106-.143-.136a1.27 1.27 0 00-.174-.067M35.959 22.886c0-.267-.114-1.072-.278-1.498-.12-.31-.317-.652-.681-1.18-.46-.666-1.23-1.26-1.7-1.51-.306-.162-.949-.403-1.519-.539-.318-.075-.74-.153-1.342-.22-1.961-.22-2.357.143-2.608.23-.272.093-.556.296-.806.44-.273.158-.5.471-.683.702-.169.214-.26.46-.423.692-.202.23-.431.499-.615.75-.029.057-.048.114-.067.173M45.06 10.078c0-.446-.058-.983-.178-1.341-.128-.385-.238-.805-.432-1.164-.194-.358-.492-.715-.745-1.074-.311-.439-.731-.805-1.208-1.297-.335-.346-.687-.582-1-.866-.392-.355-.82-.82-1.178-1.06-.38-.252-.864-.535-1.402-.805a13.754 13.754 0 01-1.311-.745C36.597 1.09 35.787 1.1 35.158.95 35.038.921 34.95.89 33.84.875a214.213 214.213 0 00-4.39 0c-1.515.019-2.165.164-2.66.253-.443.08-1.027.238-1.891.343-2.285.277-3.486.105-4.359.194-.629.064-1.342.149-1.73.268-.12.03-.268.06-.64.075-.37.015-.961.015-1.39.105M45.026 10.544c0 .848.073 2.564.204 3.047.166.614.13 1.226.223 2.025.121 1.044.056 1.844.111 4.054.053 2.1.02 6.187.001 8.347-.024 2.865-.167 4.13-.223 5.448-.093.764-.13 1.398-.186 1.676-.019.167-.019.388-.019.616" stroke="#000" stroke-width="1.727" stroke-linecap="round"/><path d="M45.137 35.757c0 .627-.073 1.894-.13 2.619-.04.518-.278.949-.538 1.395-.266.458-.853.78-1.245 1.227-.392.447-.762.966-1.301 1.525-.395.409-.8.818-1.247 1.154-.429.322-.891.594-1.338.781-.435.182-.892.297-1.339.446-.447.15-.892.224-1.339.428-.434.197-.892.316-1.894.372-.226.019-.336.055-.467.074-.13.02-.278.02-.43.02M16.912 2.289c-.737 0-2.376-.074-4.584-.094-.89-.007-1.4.279-1.977.428-.474.122-.911.223-1.358.316-.44.091-.892.204-1.357.335-.523.146-.985.277-1.45.575-.664.425-1.394 1.188-1.897 1.58-.52.407-.8.947-1.098 1.45-.314.531-.52.985-.67 1.432-.148.447-.297.892-.353 1.339-.063.497-.279 1.003-.335 1.543-.054.516-.278 1.022-.409 1.488-.146.522-.204.985-.26 2.635-.019.359-.055.47-.074.692-.02.222-.02.554-.02.895M.96 17.238c0 .073 0 .81-.02 1.926-.008.529-.093 1.855-.074 3.769.008.849.13 1.109.186 2.878.052 1.657.019 4.861.037 6.585.025 2.355.167 3.247.223 3.88.045.499.205.929.334 1.376.142.488.39.892.54 1.338.149.447.37.892.483 1.358.141.582.557.985.891 1.542.704 1.175 1.413 1.34 1.878 1.712.566.453.985.707 1.432.875.476.178.892.39 1.339.632.432.233.892.354 1.431.465.48.098 1.132.223 1.693.334.446.113.781.15 1.519.205.628.02 1.769.02 2.945.02" stroke="#000" stroke-width="1.727" stroke-linecap="round"/><path d="M33.535 45.797c-.59 0-1.783-.073-3.156-.13-.302-.012-.412-.055-1.5-.074-1.087-.019-3.149-.019-4.266.018-1.5.05-2.082.26-2.66.316-.132.013-.241.056-1.33.074-1.087.02-3.149.02-4.266.038s-1.227.055-1.564.204" stroke="#000" stroke-width="1.727" stroke-linecap="round"/></svg>