<svg width="49" height="50" fill="none" xmlns="http://www.w3.org/2000/svg"><path d="M26.867 16.19c0-.022-.022-1.264-.065-3.207-.042-1.892-.114-3.75-.142-3.959-.062-.461-1.702-.372-2.759-.459-.157-.012-.255-.031-.42-.038-.166-.006-.395-.006-.516.704-.356 2.106-.148 3.687-.176 3.887a26.71 26.71 0 00-.204 2.334c-.006.16-.014.322-.024.468-.01.146-.018.271-.167.155-1.116-.872-1.516-1.67-2.418-2.51-.762-.708-1.109-1.087-1.495-1.443-.402-.37-.979-.853-1.305-1.064-.59-.38-1.787 1.428-2.33 1.87-.066.07-.127.143-.19.217-.064.074-.129.149-.238.398" stroke="#000" stroke-width="1.457" stroke-linecap="round"/><path d="M14.418 13.543c.03.128.418.858 1.461 2.028 1.074 1.204 1.642 1.488 2.18 2.082.49.542.956 1.21 1.342 1.608.162.166-1.598.24-4.418.215-1.001-.013-1.13-.027-1.434-.037-.303-.009-.776-.013-1.47.008" stroke="#000" stroke-width="1.457" stroke-linecap="round"/><path d="M12.08 19.447c0 .013 0 1.378.003 3.48.002.745.01.836.575.884 1.678.146 3.226.036 3.89-.01.431-.03 1.095-.078 1.845-.025.247.017.203.155.136.245-.283.381-.775.562-1.229.92-.52.41-.92.977-1.341 1.34-.474.373-.898.93-1.271 1.51-.14.206-.361.52-.703 1M14.003 29.227c.042.12.252.5.8 1.074.687.582 1.21.995 1.429 1.13.13.076.298.17.64.337M16.873 31.768c.188-.028.99-.353 3.047-2.086 1.093-.921 1.702-1.732 2.15-2.099.403-.33.682-.677 1.318-1.432.347-.472.53-.726.651-.867.066-.066.139-.119.39-.314M24.43 24.97c.006 0 .085.081.817.796.653.638 1.895 1.818 2.647 2.528.973.917 2.015 1.782 3.27 2.831.724.605 1.15.704 1.713.694.465-.009.885-.724 1.212-1.216.307-.462.536-.72.673-.886.065-.08.128-.145-.038-.344-.493-.593-1.044-.945-1.268-1.158-.364-.334-1.486-1.564-2.888-3.172-.504-.58-.585-.682-.744-.915" stroke="#000" stroke-width="1.457" stroke-linecap="round"/><path d="M29.824 24.128c.014 0 1.307 0 3.512-.05 2.183-.05 2.912-.324 3.356-.418a.509.509 0 00.256-.111c.53-.507.403-2.57.4-3.65-.002-.443-1.219-.294-2.333-.399-1.79-.142-2.996-.179-3.553-.23-.159-.01-.335-.019-.517-.029M30.945 19.241c0-.007.022-.134.448-.811 1.034-1.646 2.166-2.713 2.533-3.08.431-.432.724-.787.849-.976.247-.377-.346-.938-1.118-1.721-.716-.727-1.254-1.171-1.55-1.104-.642.146-1.195.96-1.727 1.573-.877 1.01-2.204 2.153-2.72 2.637-.06.072-.119.144-.184.213-.065.068-.136.13-.28.283M26.837 30.006c-.007 0-1.167 0-2.967.008-.644.009-.74.025-.86.034-.122.009-.267.009-.43.06M22.581 30.13v.719c0 .712 0 2.133-.015 3.865-.016 1.732-.047 3.733.363 4.765.41 1.033 1.26 1.037 1.76 1.026a7.2 7.2 0 002.103-.32c.403-.118.078-1.065-.003-2.09-.05-.635-.075-1.507-.096-2.486-.07-3.247.02-3.844.079-4.41.016-.115.034-.21.05-.306.014-.096.026-.191.038-.29M37.08 1.607c.314 0 1.427.175 2.188.36.483.117 1.31.639 2.092 1.069.914.502 1.519 1.302 2.68 2.525 1.083 1.14 1.373 1.5 1.677 2.068.593 1.107.699 2.649.918 3.43.142.504.238 1.045.329 2.2.07.896.123 2.427.16 3.337.044 1.151.064 1.682.098 2.862.021.899.048 2.407.076 3.96M47.298 23.418c0 .014 0 .882.006 2.246.003.62.106 1.269.248 3.43.108 1.63.137 4.351.166 5.871.033 1.758-.012 2.523-.13 3.799-.27 2.89-.771 3.324-1.055 3.732-.29.419-.716.902-1.114 1.306-.343.347-.976.862-2.085 2.142-.911.65-2.408 1.112-3.285 1.181-.252.01-.607.028-.988.058M12.19 1.693c-.553.005-2.623.328-3.874.83-.228.093-.39.201-1.07.765a72.179 72.179 0 00-2.549 2.235c-.876.817-1.49 1.998-2.257 3.43-.32.595-.538 1.285-.893 2.444-.329 1.072-.437 2.045-.527 3.665-.04 1.2-.071 3.17-.118 4.68a99.023 99.023 0 01-.174 3.526M.728 23.291c0 .007.022 1.232.084 3.38.07 2.376.295 3.19.4 4.568.078 1.037.077 2.767.115 3.82.206 2.177.39 3.338.424 3.743.017.169.032.265.094.605M1.845 39.407c0 .171.27 1.345.501 2.102.236.772.91 1.834 1.39 2.553.306.462 1.442 1.53 3.115 2.555 1.039.637 1.865.703 2.414.859.605.172 1.298.323 1.775.418.778.155 1.238.238 1.664.306.388.063.855.163 1.496.204.994.062 2.47.16 3.344.115.69-.044 1.025-.081 1.25-.12.11-.02.213-.04.482-.126M19.276 48.273c.029 0 1.256.005 3.227.03 1.027.013 2.212.116 3.797.157.674.017 1.083.023 1.835-.03.75-.051 1.832-.163 2.924-.274 2.16-.22 3.545-.406 4.09-.55.853-.224 1.359-.247 2.053-.283a6.41 6.41 0 00.66-.08l.524-.101M37.141 1.876c-.028 0-.554-.005-1.996-.14-.936-.087-2.265-.384-3.42-.536-2.079-.274-3.43-.314-4.598-.43-.787-.078-1.978-.04-3.56.061-1.58.101-3.519.303-4.901.412-1.383.11-2.151.12-3.014.231-1.796.32-2.905.537-3.192.543-.14.006-.27.015-.466.058" stroke="#000" stroke-width="1.457" stroke-linecap="round"/></svg>