<svg width="67" height="70" fill="none" xmlns="http://www.w3.org/2000/svg"><path d="M54.493 21.58c-.182.245-.795.733-1.47 1.288-.676.554-1.29 1.287-2.026 2.177-1.318 1.591-2.089 2.058-2.611 2.796-.567.8-1.257 1.472-1.965 2.057-.706.584-1.319 1.442-1.904 2.15-.554.67-1.257 1.197-2.239 1.963-1.693 1.322-2.886 2.734-3.624 3.225-.738.492-1.473.982-2.21 1.321-.763.35-1.474.767-2.211 1.075-.976.408-2.394-.058-3.132-.366-.717-.3-1.473-.613-2.21-1.105-.738-.492-1.473-1.103-2.211-1.81-.653-.627-1.473-1.135-2.241-1.75-.933-.748-1.442-1.474-2.18-1.997-.8-.566-1.352-1.257-2.057-1.872-.903-.787-1.627-1.29-2.334-1.812-.737-.544-1.319-1.32-2.087-1.995-.841-.739-1.505-1.288-2.18-1.873-.738-.646-1.29-1.075-1.658-1.443l-.74-.74M24.282 35.765c-.366 0-1.101.243-1.809.765-.7.517-1.197 1.257-1.933 1.903-1.16 1.017-2.086 2.055-3.1 3.069-1.077 1.077-1.812 1.69-2.55 2.182-.738.492-1.35 1.104-2.454 2.3-.25.279-.37.461-.68.834M42.335 35.397c.306.182.917.795 1.502 1.44.585.645 1.257 1.197 1.842 1.842.585.645 1.258 1.198 2.33 2.36 2.316 2.511 2.98 3.075 3.688 3.75.584.677 1.44 1.41 2.088 2.21.154.185.336.368.708.924" stroke="#000" stroke-width="2.594" stroke-linecap="round"/><path d="M10.098 23.238c0 1.765.121 5.46.214 6.75.08 1.115.276 2.089.369 2.98.022.217.09.398.122 2.225.031 1.826.031 5.291.062 7.168.04 2.433.275 3.164.368 4.207.04.438.154.8.245 1.107.204.685 1.38.675 2.117.831.854.18 1.72.215 7.012.307 5.049.088 14.898.031 20.062 0 6.023-.035 7.373-.275 8.264-.368.216-.03.399-.09 1.283-.122.884-.032 2.465-.032 4.093-.032M54.31 48.291c.305-.182.673-.917.767-1.991.045-.527.153-2.17.123-4.38-.043-3.13-.276-7.684-.369-9.19-.067-1.086-.275-1.935-.368-3.438-.154-1.076-.215-2.06-.307-3.188-.031-.886-.031-2.405-.031-3.971M54.347 21.217h-2.685c-2.592 0-7.728 0-10.444.024-3.33.028-4.131.165-5.72.235-1.45.065-4.205.024-5.718 0-2.968-.045-5.426-.024-6.134.165-.796.213-1.93.284-2.735.401-.419.061-.85.07-2.394.142-3.874.177-6.616.07-6.921.141-.353.024-.685.07-.967.165-.143.047-.283.094-.569.142M55.17 66.022c1.143 0 3.815-.36 4.88-.908.803-.412 1.727-1.33 2.368-2.183.468-.622.636-1.455.941-2.214.362-.902.485-1.79.698-2.85.186-.929.213-2.15.364-3.216.167-1.177.213-2.032.364-4.804.118-2.162.031-6.31.001-8.534a91.88 91.88 0 00-.364-7.138c-.152-1.032-.212-1.882-.303-2.486-.03-.364-.03-.844-.03-1.34" stroke="#000" stroke-width="2.594" stroke-linecap="round"/><path d="M64.088 30.35c0-.12 0-3.606-.03-8.883-.018-3.064-.272-5.128-.364-6.793-.086-1.552-.272-3.249-.515-4.129a9.095 9.095 0 00-.91-2.215 11.358 11.358 0 00-1.757-2.335c-.651-.674-1.153-1.366-1.881-1.852a10.641 10.641 0 00-2.184-1.123c-.777-.29-1.576-.637-2.427-.85-1.005-.252-1.879-.213-2.76-.364-1.23-.21-2.333-.333-3.79-.425-2.833-.179-7.705-.032-8.677.06-.49.047-3.494.152-7.77.182-1.514.03-1.694.09-1.877.151-.183.061-.363.121-.913.365M28.233 2.14c-.12 0-2.644 0-6.495.03-2.182.016-3.147.271-4.36.363-1.517.115-3.457.272-8.025.364-1.517.03-2.228.574-2.957 1.06-.719.48-1.514 1.513-2.155 2.396-.554.762-.698 1.607-.941 2.336-.243.728-.485 1.455-.728 2.335-.213.769-.485 1.486-.728 2.215-.121.363-.243.728-.364 1.122a6.1 6.1 0 00-.183.882M1.297 15.244c0 .12 0 2.945.03 7.25.01 1.544.09 1.784.12 3.8.032 2.016.032 5.8.002 7.839-.03 2.04-.09 2.22-.121 4.685-.031 2.465-.031 7.21-.031 12.098" stroke="#000" stroke-width="2.594" stroke-linecap="round"/><path d="M1.297 50.916c0 1.203.12 3.636.363 4.395.296.926.485 1.91.728 2.852.2.772.485 1.486.91 2.517.34.83.667 1.517 1.091 2.245.44.758 1.69 2.056 2.73 2.762.863.588 2.12 1.001 3.062 1.244.793.205 1.967.547 3.185.698.66.082 1.215.091 2.78.182 3.96.23 6.807-.029 7.711-.12 3.448-.347 5.032-.213 6.284-.364.633-.03 1.185-.09 1.548-.212.183-.06.363-.12.548-.183M32.237 66.932c.24 0 3.487 0 8.37.03 3.453.021 6.245.032 8.155-.06.58-.09 2.507-.152 5.236-.212.988-.06 1.168-.18 1.536-.486" stroke="#000" stroke-width="2.594" stroke-linecap="round"/></svg>