<svg width="46" height="47" fill="none" xmlns="http://www.w3.org/2000/svg"><path d="M17.653 40.815c.219-.218.906-.906 1.396-1.333.353-.308.674-.924 1.067-1.553.466-.746.52-1.162.63-1.555.123-.441.11-.894.188-1.366.113-.684.11-1.534.157-2.476.014-.293.14-.196.234-.117.355.296.753.456 1.13.66.355.191 3.054.204 4.663.126.614-.03.989-.172 1.366-.407.426-.265.753-.58 1.209-.832.11-.063.204-.126.298-.189.095-.063.188-.125.379-.283M30.37 31.49c.218-.22.968-.969 1.505-1.522.43-.442.691-.926 1.114-1.63.932-1.551.99-2.214 1.164-2.781.15-.492.391-.91.55-1.35.096-.272.094-1.778.078-3.85-.008-1.086-.235-1.582-.392-2.084a5.284 5.284 0 00-.722-1.477c-.251-.377-.502-.753-.753-1.208-.252-.487-.471-1.021-.628-1.303a2.144 2.144 0 01-.127-.316M31.97 14.157c-.186-.062-.562-.375-1.174-.971-.38-.37-.801-.566-1.179-.802-.351-.22-.753-.361-1.177-.518-.633-.234-1.05-.409-1.632-.519-.512-.097-1.02-.172-1.508-.298-.45-.116-.957-.157-1.926-.267-2.595-.295-3.05.14-3.474.282-.487.162-.832.486-1.225.66-.495.217-.926.423-1.49.845-1.06.793-1.258 1.304-1.619 1.618-.424.44-.675.816-.927 1.193-.063.095-.125.188-.189.378" stroke="#000" stroke-width="1.727" stroke-linecap="round"/><path d="M30.935 23.294c0 .53-.062 1.6-.188 1.977a4.298 4.298 0 01-.58 1.13c-.29.41-.581.754-1.067 1.287-.384.422-.739.88-1.084 1.163-.359.295-.91.408-1.319.566-.408.157-.847.407-1.38.55-1.125.3-1.54-.235-1.917-.44-.354-.19-.66-.297-.816-.485-.843-1.01-.065-3.58.06-3.957.136-.405.19-.909.284-1.334.101-.462.25-.832.376-1.209.308-.922.033-2.543-.171-2.92-.197-.365-.424-.753-.769-1.1-.289-.289-1.437-.22-2.166-.048-.404.095-.691.485-1.162 1.019-.307.349-.41.785-.52 1.194-.147.547-.11 1.874 0 2.7.056.425.33.753.44 1.426.302 1.848-.173 2.31-.345 2.89a29.844 29.844 0 01-.596 1.791c-.16.43-.424.77-.55 1.146-.126.378-.251.753-.361 1.193-.169.673-.11 1.13-.204 1.54-.109.474-.19 1.097-.267 1.522-.083.45-.11 2.883.061 4.317.142.378.33.753.566 1.13.047.095.078.189.11.285M17.463 41.132c.08 0 1.161 0 2.816-.02 2.182-.026 5.097-.181 5.866-.242.582-.047 1.21-.303 1.858-.484.637-.18 1.17-.505 1.697-.708.477-.183.968-.402 1.474-.605.575-.231 1.07-.444 1.555-.727.504-.293.969-.725 1.353-1.19.425-.385.707-.748.949-.97.122-.102.242-.182.486-.386M35.881 35.437c.281-.281.766-.846 1.21-1.452.478-.652.889-1.212 1.192-1.697.283-.452.545-.968.848-1.474.323-.537.465-1.15.627-1.676.15-.49.243-1.049.363-1.676.1-.521.323-.99.485-1.535.306-1.03.202-2.2.223-5.14.007-.99-.302-1.623-.464-2.311-.162-.687-.403-1.333-.606-1.939-.2-.596-.403-1.09-.626-1.676-.203-.533-.504-.99-.727-1.475-.239-.52-.545-.969-.847-1.474-.425-.587-.827-1.15-1.313-1.656a4.03 4.03 0 00-.365-.265M35.881 9.992c-.201-.363-.603-.766-1.089-1.11a49.889 49.889 0 01-1.575-1.15c-.43-.331-.969-.566-1.554-.789-.552-.21-1.07-.545-1.717-.727-.637-.179-1.09-.424-1.716-.586-.78-.201-1.514-.323-2.262-.485a46.5 46.5 0 00-1.757-.343c-.68-.12-2.53-.142-3.836-.041-1.091.084-1.656.222-2.283.383-.514.133-1.07.403-1.596.606-.49.19-.969.444-1.454.606-.499.166-.969.444-1.454.827-.45.355-.969.545-1.454.869-.478.319-.848.847-1.232 1.332-.465.525-.868.97-1.15 1.212-.123.121-.203.241-.407.607M9.345 11.203c-.241.08-.644.483-1.17 1.069-.415.464-.606.989-.97 1.474-.324.435-.484.969-.747 1.474-.289.557-.464 1.07-.646 1.555-.194.517-.424.969-.586 1.555-.141.512-.323 1.07-.485 1.797-.134.604-.201 1.252-.223 5.257-.006 1.215.303 1.69.364 2.276.058.56.382 1.11.585 1.596.223.533.565 1.09.828 1.675.1.263.222.506.363.748.061.122.101.242.264.487" stroke="#000" stroke-width="1.727" stroke-linecap="round"/><path d="M6.922 32.165c.04.241.92 1.285 1.774 2.038.912.804 1.412 1.512 1.88 2.06.375.44 1.028.827 1.554 1.233.462.356.969.725 1.454 1.09.466.35.969.646 1.454.97.486.323.969.645 1.454.848.486.202.85.404 1.09.485.123.04.242.08.608.364M10.557 1.51c-.801 0-2.421.08-2.906.242-.499.166-.97.524-1.454.746-.52.24-.97.626-1.474.99-.64.46-1.07.927-1.435 1.413-.35.466-.566.968-.828 1.454-.254.47-.465 1.048-.627 1.575a8.546 8.546 0 00-.384 1.998c-.058.831-.18 1.959-.242 3.088-.02.37-.101 2.249-.121 4.975-.007.966-.06 1.086-.08 2.167-.021 1.082-.021 3.12-.041 4.231-.02 1.11-.06 1.23-.102 1.597" stroke="#000" stroke-width="1.727" stroke-linecap="round"/><path d="M.863 25.986c0 1.68.08 5.087.142 5.793.055.64.222 1.35.322 2.08.155 1.123.142 1.857.243 2.484.131.82.142 1.874.262 2.626.096.6.323 1.07.505 1.555.2.536.705.969 1.09 1.434.368.446.868.747 1.312 1.111.512.42 1.09.808 1.595 1.07.557.29 1.07.465 1.676.627.636.17 1.292.202 2.098.344.79.139 1.417.06 2.858.121 1.32.055 3.84.02 5.198.04 1.358.02 1.478.06 2.32.081.841.02 2.4.02 4.25-.1M24.734 45.251h1.34c1.26 0 3.739 0 5.076-.02 1.823-.027 2.628-.18 3.355-.242a13.337 13.337 0 002-.323c.57-.148 1.15-.142 1.777-.262.522-.1 1.07-.323 1.596-.485.502-.154.968-.444 1.454-.706.454-.246.927-.826 1.233-1.353.277-.477.504-.968.707-1.454.203-.484.444-.968.605-1.454a7.528 7.528 0 00.385-1.695c.14-.607.262-.97.323-1.692.02-.602.02-1.682.02-2.794" stroke="#000" stroke-width="1.727" stroke-linecap="round"/><path d="M44.605 32.771c0-.08 0-1.88.02-4.606.013-1.733.181-3.105.242-3.933.014-.184.06-.304.081-2.545.02-2.24.02-6.6 0-8.904-.023-2.75-.18-3.395-.342-4-.172-.645-.323-1.292-.505-1.819-.18-.522-.504-.969-.828-1.454-.323-.485-.645-.969-1.09-1.333a18.672 18.672 0 00-1.453-1.09c-.486-.324-.97-.647-1.454-.87-.502-.23-.97-.424-1.455-.686-.456-.246-2.488-.264-3.916-.364-.721-.02-1.294-.06-2.936-.121-1.52-.02-4.44-.02-7.447-.02M23.522 1.025c-.681 0-2.137-.08-4.675-.141-1.62-.04-3.562-.021-4.148.04-.986.103-2.443.181-3.23.242-.184.02-.304.06-.526.08-.221.021-.541.021-.87.021M14.678 15.392c-.12.04-.358.277-.567.557-.276.367-.508.577-.638.817-.13.239-.288.478-.419.717-.13.24-.248.517-.348.787-.105.281-.16.528-.299.856-.198.468-.259.886-.359 1.216-.081.268-.16.547-.239.797-.091.285-.16.567-.19 1.075s-.01 1.225.07 1.544c.079.315.1.677.18 1.006.065.273.159.548.288.837.108.242.209.488.309.737.137.342.318.707.527 1.096.165.304.586.725.946 1.036.456.393.737.508.977.658.11.069.24.11.348.14.248.068.27-.487.37-.786.1-.3.258-.538.427-.777.05-.06.11-.12.29-.3" stroke="#000" stroke-width="1.727" stroke-linecap="round"/><path d="M16.351 27.405c-.02-.119-.139-.397-.447-.855-.183-.272-.25-.518-.38-.807-.113-.254-.109-.587-.189-.907-.08-.324-.18-.637-.239-.946-.05-.257-.12-.488-.17-1.082-.172-2.069.09-2.434.16-2.693.068-.252.11-.577.189-.887.067-.26.258-.488.378-.727.04-.06.1-.12.15-.18a2 2 0 00.13-.18" stroke="#000" stroke-width="1.727" stroke-linecap="round"/><path d="M30.815 23.4c0-.039 0-.927-.01-2.271-.005-.66-.15-.895-.23-1.144-.092-.291-.218-.528-.298-.767-.082-.246-.219-.478-.348-.717-.126-.232-.23-.478-.359-.718a5.011 5.011 0 00-.478-.717c-.182-.23-.407-.477-.618-.707-.2-.22-.467-.389-.756-.598a5.984 5.984 0 00-.737-.478 3.459 3.459 0 00-.817-.3 6.018 6.018 0 00-.847-.139c-.302-.028-.577-.09-.995-.268-.326-.14-1.328-.14-2.092-.021-.37.057-.618.279-.858.359-.234.078-.477.139-.717.199-.26.065-.478.199-.717.289-.264.099-.517.347-.777.478a4.066 4.066 0 00-.717.457c-.23.182-.439.369-.658.549-.222.182-.438.358-.548.597-.116.252-.368.418-.587.588-.208.162-.439.308-.608.547-.19.24-.27.42-.349.538-.04.06-.08.12-.18.24" stroke="#000" stroke-width="1.727" stroke-linecap="round"/></svg>